<svg width="500" height="500" viewBox="0 0 500 500" fill="none" xmlns="http://www.w3.org/2000/svg">
<rect width="500" height="500" fill="url(#paint0_linear_1333_3431)"/>
<path d="M149.107 187.559C149.107 176.777 151.339 166.445 155.804 156.563C160.565 146.68 167.113 138.145 175.446 130.957C184.077 123.47 194.345 117.48 206.25 112.988C218.452 108.496 232.143 106.25 247.321 106.25C261.31 106.25 273.958 108.496 285.268 112.988C296.875 117.48 306.845 123.77 315.179 131.855C323.512 139.941 329.911 149.525 334.375 160.605C338.839 171.387 341.071 183.216 341.071 196.094H289.732C289.732 183.516 286.012 173.633 278.571 166.445C271.131 159.258 260.714 155.664 247.321 155.664C233.929 155.664 223.512 158.958 216.071 165.547C208.631 172.135 204.911 179.323 204.911 187.109C204.911 195.495 208.482 201.934 215.625 206.426C222.768 210.918 231.696 214.961 242.411 218.555C253.125 222.148 264.732 225.892 277.232 229.785C290.03 233.678 301.786 238.919 312.5 245.508C323.214 252.096 332.143 260.781 339.286 271.562C346.429 282.044 350 295.82 350 312.891C350 323.073 347.47 332.956 342.411 342.539C337.649 352.122 330.804 360.807 321.875 368.594C312.946 376.081 302.083 382.22 289.286 387.012C276.786 391.504 262.798 393.75 247.321 393.75C231.548 393.75 217.411 391.504 204.911 387.012C192.708 382.52 182.292 376.23 173.661 368.145C165.03 359.759 158.333 350.026 153.571 338.945C149.107 327.565 146.875 315.137 146.875 301.66H200.446C200.446 314.238 204.613 324.57 212.946 332.656C221.28 340.443 232.738 344.336 247.321 344.336C263.095 344.336 274.851 341.042 282.589 334.453C290.327 327.565 294.196 319.629 294.196 310.645C294.196 301.96 290.625 295.221 283.482 290.43C276.339 285.638 267.411 281.445 256.696 277.852C245.982 273.958 234.226 270.215 221.429 266.621C208.929 263.027 197.321 258.086 186.607 251.797C175.893 245.508 166.964 237.422 159.821 227.539C152.679 217.357 149.107 204.03 149.107 187.559Z" fill="white"/>
<defs>
<linearGradient id="paint0_linear_1333_3431" x1="17.189" y1="42.1855" x2="457.618" y2="391.329" gradientUnits="userSpaceOnUse">
<stop stop-color="#4BA0FE"/>
<stop offset="1" stop-color="#3A80E7"/>
</linearGradient>
</defs>
</svg>
