<svg width="500" height="500" viewBox="0 0 500 500" fill="none" xmlns="http://www.w3.org/2000/svg">
<rect width="500" height="500" rx="80" fill="url(#paint0_linear_5_78)"/>
<path d="M253.862 408C231.528 408 211.804 404.229 194.691 396.688C177.577 388.856 164.09 377.834 154.228 363.622C144.366 349.119 139.29 331.57 139 310.977H197.736C198.316 325.189 203.392 337.227 212.964 347.088C222.826 356.66 236.314 361.446 253.427 361.446C268.22 361.446 279.967 357.965 288.669 351.004C297.37 343.753 301.721 334.181 301.721 322.289C301.721 309.816 297.805 300.099 289.974 293.138C282.432 286.177 272.28 280.521 259.518 276.17C246.756 271.819 233.123 267.178 218.62 262.247C195.126 254.126 177.142 243.684 164.67 230.921C152.488 218.159 146.396 201.191 146.396 180.017C146.106 162.033 150.312 146.66 159.014 133.898C168.006 120.845 180.188 110.838 195.561 103.877C210.934 96.6257 228.627 93 248.641 93C268.945 93 286.783 96.6257 302.156 103.877C317.819 111.128 330.001 121.28 338.703 134.333C347.695 147.385 352.481 162.903 353.061 180.887H293.454C293.164 170.155 288.959 160.728 280.837 152.606C273.006 144.195 261.983 139.989 247.771 139.989C235.588 139.699 225.291 142.744 216.88 149.126C208.758 155.217 204.698 164.209 204.698 176.101C204.698 186.253 207.888 194.374 214.269 200.465C220.651 206.267 229.352 211.198 240.374 215.258C251.396 219.319 264.014 223.67 278.227 228.311C293.309 233.532 307.087 239.623 319.559 246.584C332.032 253.546 342.039 262.827 349.58 274.43C357.122 285.742 360.892 300.39 360.892 318.373C360.892 334.326 356.831 349.119 348.71 362.751C340.588 376.384 328.551 387.406 312.598 395.818C296.645 403.939 277.066 408 253.862 408Z" fill="white"/>
<defs>
<linearGradient id="paint0_linear_5_78" x1="32.5" y1="35" x2="528.294" y2="110.321" gradientUnits="userSpaceOnUse">
<stop stop-color="#3DA9A0"/>
<stop offset="1" stop-color="#0D9488"/>
</linearGradient>
</defs>
</svg>
