<?xml version="1.0" encoding="UTF-8"?>
<svg id="Layer_1" xmlns="http://www.w3.org/2000/svg" viewBox="0 0 817.37 123.63">
  <defs>
    <style>.cls-1{fill:#fff;}</style>
  </defs>
  <g id="Layer_2">
    <g id="main_content">
      <path class="cls-1"
            d="M55.23,51.63c-3.64-2.21-7.54-3.95-11.62-5.18-4.21-1.27-8.08-2.5-11.61-3.69-3.1-.99-6.08-2.33-8.88-4-2.27-1.3-3.63-3.75-3.55-6.36,0-2.57,1.23-4.94,3.7-7.11,2.47-2.17,5.91-3.25,10.34-3.26,4.44,0,7.9,1.2,10.39,3.6,2.49,2.4,3.72,5.66,3.7,9.77h17c.04-4.03-.73-8.03-2.24-11.77-1.44-3.54-3.61-6.75-6.36-9.4-2.82-2.7-6.15-4.81-9.8-6.21-4.05-1.54-8.36-2.31-12.69-2.26-4.61-.07-9.19,.68-13.54,2.22-3.73,1.33-7.19,3.31-10.22,5.85-2.76,2.34-5,5.24-6.55,8.51-1.51,3.19-2.3,6.68-2.3,10.21,0,5.44,1.2,9.8,3.6,13.08,2.35,3.3,5.38,6.06,8.88,8.1,3.65,2.13,7.55,3.77,11.62,4.9,4.19,1.18,8.06,2.39,11.62,3.63,3.13,1.03,6.11,2.44,8.88,4.22,2.29,1.43,3.65,3.96,3.56,6.66-.04,3.04-1.46,5.9-3.86,7.77-2.57,2.22-6.47,3.33-11.7,3.33-4.83,0-8.63-1.31-11.4-3.92-2.76-2.64-4.26-6.33-4.13-10.14H.3c-.04,4.18,.74,8.32,2.3,12.19,1.49,3.64,3.73,6.92,6.59,9.62,3,2.8,6.55,4.95,10.43,6.29,4.5,1.56,9.24,2.31,14,2.23,4.77,.06,9.51-.71,14-2.3,3.89-1.37,7.51-3.43,10.68-6.07,2.83-2.36,5.17-5.25,6.88-8.51,1.59-3.01,2.43-6.36,2.44-9.77,0-5.62-1.18-10.19-3.55-13.7-2.3-3.45-5.31-6.36-8.84-8.53Z"/>
      <path class="cls-1"
            d="M134.06,40.76c-2.86-3.07-6.31-5.54-10.14-7.25-3.82-1.72-7.95-2.6-12.14-2.59-2.71-.04-5.41,.36-8,1.18-2.09,.68-4.12,1.53-6.07,2.53-1.87,1.02-3.61,2.26-5.18,3.7v-6.64h-15.53v13h0V123.5h17v-29.66c1.44,1.32,3.03,2.47,4.74,3.41,1.8,.88,3.66,1.62,5.57,2.22,2.43,.72,4.95,1.06,7.48,1,4.19,.01,8.33-.87,12.14-2.6,3.83-1.71,7.27-4.17,10.13-7.24,2.99-3.2,5.37-6.93,7-11,1.74-4.41,2.61-9.12,2.55-13.86,.06-4.79-.82-9.55-2.59-14-1.62-4.07-3.98-7.8-6.96-11.01Zm-12.36,38.43c-6.7,6.7-17.56,6.71-24.27,.01,0,0,0,0-.01-.01-3.26-3.33-4.89-7.82-4.89-13.47s1.63-10.14,4.89-13.48c6.71-6.7,17.57-6.7,24.28,0,3.25,3.33,4.88,7.83,4.88,13.48s-1.63,10.14-4.88,13.47Z"/>
      <path class="cls-1"
            d="M199,31.69v6.63h0c-1.6-1.4-3.34-2.64-5.18-3.7-1.95-1-3.98-1.84-6.07-2.52-2.59-.82-5.29-1.22-8-1.18-4.18-.01-8.32,.87-12.14,2.59-3.83,1.71-7.27,4.18-10.13,7.25-2.99,3.2-5.37,6.93-7,11-1.76,4.45-2.63,9.21-2.55,14-.05,4.75,.82,9.46,2.56,13.87,1.63,4.07,4,7.8,7,11,2.86,3.07,6.31,5.54,10.14,7.25,3.81,1.73,7.95,2.61,12.14,2.6,2.71,.04,5.41-.33,8-1.11,2.12-.63,4.15-1.51,6.07-2.6,1.85-1.06,3.58-2.3,5.18-3.7h0v6.65h15.55V31.63l-15.57,.06Zm-4.88,47.5c-6.7,6.7-17.56,6.71-24.27,.01,0,0,0,0-.01-.01-3.26-3.33-4.89-7.82-4.89-13.47s1.63-10.14,4.89-13.48c6.71-6.7,17.57-6.7,24.28,0,3.25,3.33,4.88,7.83,4.88,13.48s-1.64,10.14-4.91,13.47h.03Z"/>
      <path class="cls-1"
            d="M260.3,31.07c-.69-.1-1.38-.14-2.07-.14-2.37-.04-4.72,.38-6.93,1.25-1.82,.73-3.54,1.7-5.1,2.89-1.61,1.13-3.06,2.48-4.3,4v-7.38h-15.54v13h0v55.07h17V63.49c0-4.44,1.31-8.02,3.93-10.73,2.65-2.73,6.34-4.21,10.14-4.07,.82,0,1.63,.05,2.44,.15,.74,.1,1.36,.2,1.85,.29l1.63,.3V31.63l-1.48-.3-1.57-.26Z"/>
      <polygon class="cls-1"
               points="329.54 31.67 311.04 31.67 297.71 53.13 284.39 31.67 265.89 31.67 287.35 64.98 264.41 99.77 282.91 99.77 297.71 76.82 312.52 99.77 331.02 99.77 308.08 64.98 329.54 31.67"/>
    </g>
  </g>
  <path class="cls-1"
        d="M367.96,33.11c0-3.51,.75-6.87,2.27-10.09,1.51-3.22,3.65-6.02,6.43-8.41,2.78-2.39,6.14-4.31,10.09-5.77s8.41-2.19,13.38-2.19c4.58,0,8.75,.73,12.5,2.19,3.75,1.46,6.99,3.51,9.72,6.14,2.73,2.63,4.82,5.73,6.29,9.28,1.46,3.56,2.19,7.43,2.19,11.62h-16.81c0-4.09-1.22-7.31-3.66-9.65-2.44-2.34-5.85-3.51-10.23-3.51s-7.8,1.07-10.23,3.22c-2.44,2.14-3.65,4.48-3.65,7.02,0,2.73,1.17,4.82,3.51,6.29s5.26,2.78,8.77,3.95,7.33,2.39,11.48,3.66c4.14,1.27,7.97,2.97,11.48,5.12,3.51,2.15,6.43,4.95,8.77,8.41,2.34,3.46,3.51,7.97,3.51,13.52,0,3.31-.8,6.53-2.41,9.65-1.61,3.12-3.87,5.92-6.8,8.41-2.92,2.49-6.46,4.48-10.6,5.99-4.14,1.51-8.75,2.27-13.82,2.27s-9.77-.73-13.82-2.19c-4.05-1.46-7.48-3.53-10.31-6.21-2.83-2.68-5-5.85-6.51-9.5-1.51-3.66-2.27-7.68-2.27-12.06h17.54c0,4.09,1.36,7.43,4.09,10.02,2.73,2.58,6.48,3.87,11.26,3.87,5.17,0,9.01-1.1,11.55-3.29,2.53-2.19,3.8-4.75,3.8-7.68s-1.17-5.02-3.51-6.58c-2.34-1.56-5.26-2.95-8.77-4.17-3.51-1.22-7.33-2.41-11.48-3.58-4.14-1.17-7.97-2.78-11.48-4.82-3.51-2.05-6.43-4.7-8.77-7.97-2.34-3.26-3.51-7.58-3.51-12.94Z"/>
  <path class="cls-1"
        d="M504.23,74.63c-.78,3.31-2.1,6.51-3.95,9.58-1.85,3.07-4.14,5.8-6.87,8.19-2.73,2.39-5.85,4.29-9.36,5.7-3.51,1.41-7.26,2.12-11.26,2.12-4.58,0-8.9-.9-12.94-2.7-4.05-1.8-7.6-4.26-10.67-7.38-3.07-3.12-5.51-6.75-7.31-10.89-1.8-4.14-2.7-8.6-2.7-13.38s.9-9.23,2.7-13.38c1.8-4.14,4.24-7.77,7.31-10.89,3.07-3.12,6.63-5.58,10.67-7.38,4.04-1.8,8.36-2.71,12.94-2.71,3.99,0,7.75,.71,11.26,2.12,3.51,1.41,6.63,3.31,9.36,5.7,2.73,2.39,5.02,5.12,6.87,8.19,1.85,3.07,3.17,6.26,3.95,9.58h-16.81c-.78-1.75-1.85-3.31-3.22-4.68-1.17-1.17-2.68-2.27-4.53-3.29-1.85-1.02-4.14-1.54-6.87-1.54-4.78,0-8.77,1.66-11.99,4.97-3.22,3.31-4.82,7.75-4.82,13.3s1.61,9.99,4.82,13.3c3.22,3.31,7.21,4.97,11.99,4.97,2.73,0,5.02-.49,6.87-1.46,1.85-.97,3.36-2.05,4.53-3.22,1.36-1.36,2.43-2.97,3.22-4.82h16.81Z"/>
  <path class="cls-1"
        d="M520.31,23.46c-2.54,0-4.75-.95-6.65-2.85s-2.85-4.12-2.85-6.65,.95-4.75,2.85-6.65,4.12-2.85,6.65-2.85,4.75,.95,6.65,2.85,2.85,4.12,2.85,6.65-.95,4.75-2.85,6.65-4.12,2.85-6.65,2.85Zm8.04,76.02h-16.81V32.24h16.81V99.49Z"/>
  <path class="cls-1"
        d="M599.98,79.02c-.88,2.54-2.22,5.07-4.02,7.6-1.8,2.54-4,4.8-6.58,6.8-2.58,2-5.51,3.63-8.77,4.9-3.27,1.27-6.8,1.9-10.6,1.9-4.58,0-8.9-.9-12.94-2.7-4.05-1.8-7.6-4.26-10.67-7.38-3.07-3.12-5.51-6.75-7.31-10.89-1.8-4.14-2.7-8.6-2.7-13.38s.9-9.23,2.7-13.38c1.8-4.14,4.24-7.77,7.31-10.89,3.07-3.12,6.63-5.58,10.67-7.38,4.04-1.8,8.36-2.71,12.94-2.71s8.53,.83,12.43,2.49c3.9,1.66,7.31,4,10.23,7.02,2.92,3.02,5.24,6.65,6.94,10.89,1.7,4.24,2.56,8.9,2.56,13.96,0,.78-.05,1.54-.15,2.27-.1,.73-.2,1.44-.29,2.12-.1,.78-.2,1.51-.29,2.19h-46.78c.78,3.31,2.44,6.09,4.97,8.33,2.53,2.24,5.99,3.36,10.38,3.36,2.24,0,4.12-.24,5.63-.73,1.51-.49,2.8-1.07,3.88-1.75,1.17-.78,2.14-1.66,2.92-2.63h17.54Zm-29.97-31.43c-4.39,0-7.97,1.27-10.75,3.8-2.78,2.54-4.56,5.65-5.34,9.36h32.16c-.78-3.7-2.56-6.82-5.34-9.36-2.78-2.53-6.36-3.8-10.75-3.8Z"/>
  <path class="cls-1"
        d="M644.57,31.51c3.99,0,7.65,.66,10.96,1.97,3.31,1.32,6.16,3.22,8.55,5.7,2.39,2.48,4.24,5.48,5.55,8.99,1.32,3.51,1.97,7.46,1.97,11.84v39.47h-16.81V62.21c0-4.39-1.29-7.92-3.87-10.6-2.58-2.68-5.92-4.02-10.01-4.02s-7.43,1.34-10.01,4.02c-2.58,2.68-3.87,6.21-3.87,10.6v37.28h-16.81V32.24h12.43l2.92,6.58c1.66-1.36,3.46-2.58,5.41-3.66,1.66-.88,3.63-1.7,5.92-2.48,2.29-.78,4.85-1.17,7.68-1.17Z"/>
  <path class="cls-1"
        d="M743.99,74.63c-.78,3.31-2.1,6.51-3.95,9.58-1.85,3.07-4.14,5.8-6.87,8.19-2.73,2.39-5.85,4.29-9.36,5.7-3.51,1.41-7.26,2.12-11.26,2.12-4.58,0-8.9-.9-12.94-2.7-4.05-1.8-7.6-4.26-10.67-7.38-3.07-3.12-5.51-6.75-7.31-10.89-1.8-4.14-2.7-8.6-2.7-13.38s.9-9.23,2.7-13.38c1.8-4.14,4.24-7.77,7.31-10.89,3.07-3.12,6.63-5.58,10.67-7.38,4.04-1.8,8.36-2.71,12.94-2.71,4,0,7.75,.71,11.26,2.12,3.51,1.41,6.63,3.31,9.36,5.7,2.73,2.39,5.02,5.12,6.87,8.19,1.85,3.07,3.17,6.26,3.95,9.58h-16.81c-.78-1.75-1.85-3.31-3.22-4.68-1.17-1.17-2.68-2.27-4.53-3.29-1.85-1.02-4.14-1.54-6.87-1.54-4.78,0-8.77,1.66-11.99,4.97-3.22,3.31-4.82,7.75-4.82,13.3s1.61,9.99,4.82,13.3c3.22,3.31,7.21,4.97,11.99,4.97,2.73,0,5.02-.49,6.87-1.46,1.85-.97,3.36-2.05,4.53-3.22,1.36-1.36,2.44-2.97,3.22-4.82h16.81Z"/>
  <path class="cls-1"
        d="M811.24,79.02c-.88,2.54-2.22,5.07-4.02,7.6-1.8,2.54-4,4.8-6.58,6.8-2.58,2-5.51,3.63-8.77,4.9-3.27,1.27-6.8,1.9-10.6,1.9-4.58,0-8.9-.9-12.94-2.7-4.05-1.8-7.6-4.26-10.67-7.38-3.07-3.12-5.51-6.75-7.31-10.89-1.81-4.14-2.7-8.6-2.7-13.38s.9-9.23,2.7-13.38c1.8-4.14,4.24-7.77,7.31-10.89,3.07-3.12,6.63-5.58,10.67-7.38,4.04-1.8,8.36-2.71,12.94-2.71s8.53,.83,12.43,2.49c3.9,1.66,7.31,4,10.23,7.02,2.92,3.02,5.24,6.65,6.95,10.89,1.7,4.24,2.56,8.9,2.56,13.96,0,.78-.05,1.54-.15,2.27-.1,.73-.2,1.44-.29,2.12-.1,.78-.2,1.51-.29,2.19h-46.78c.78,3.31,2.43,6.09,4.97,8.33,2.53,2.24,5.99,3.36,10.38,3.36,2.24,0,4.12-.24,5.63-.73,1.51-.49,2.8-1.07,3.87-1.75,1.17-.78,2.14-1.66,2.92-2.63h17.54Zm-29.97-31.43c-4.39,0-7.97,1.27-10.75,3.8-2.78,2.54-4.56,5.65-5.34,9.36h32.16c-.78-3.7-2.56-6.82-5.34-9.36-2.78-2.53-6.36-3.8-10.75-3.8Z"/>
</svg>
